<svg xmlns="http://www.w3.org/2000/svg" version="1.1" xmlns:xlink="http://www.w3.org/1999/xlink" xmlns:svgjs="http://svgjs.dev/svgjs" width="1440" height="560" preserveAspectRatio="none" viewBox="0 0 1440 560"><g mask="url(&quot;#SvgjsMask1676&quot;)" fill="none"><rect width="1440" height="560" x="0" y="0" fill="url(&quot;#SvgjsLinearGradient1677&quot;)"></rect><use xlink:href="#SvgjsSymbol1684" x="0" y="0"></use><use xlink:href="#SvgjsSymbol1684" x="720" y="0"></use></g><defs><mask id="SvgjsMask1676"><rect width="1440" height="560" fill="#ffffff"></rect></mask><linearGradient x1="84.72%" y1="-39.29%" x2="15.28%" y2="139.29%" gradientUnits="userSpaceOnUse" id="SvgjsLinearGradient1677"><stop stop-color="#0e2a47" offset="0"></stop><stop stop-color="rgba(2, 113, 255, 1)" offset="1"></stop></linearGradient><path d="M-1 0 a1 1 0 1 0 2 0 a1 1 0 1 0 -2 0z" id="SvgjsPath1682"></path><path d="M-3 0 a3 3 0 1 0 6 0 a3 3 0 1 0 -6 0z" id="SvgjsPath1678"></path><path d="M-5 0 a5 5 0 1 0 10 0 a5 5 0 1 0 -10 0z" id="SvgjsPath1680"></path><path d="M2 -2 L-2 2z" id="SvgjsPath1679"></path><path d="M6 -6 L-6 6z" id="SvgjsPath1681"></path><path d="M30 -30 L-30 30z" id="SvgjsPath1683"></path></defs><symbol id="SvgjsSymbol1684"><use xlink:href="#SvgjsPath1678" x="30" y="30" stroke="rgba(3, 167, 247, 1)"></use><use xlink:href="#SvgjsPath1679" x="30" y="90" stroke="rgba(3, 167, 247, 1)"></use><use xlink:href="#SvgjsPath1680" x="30" y="150" stroke="rgba(3, 167, 247, 1)"></use><use xlink:href="#SvgjsPath1679" x="30" y="210" stroke="rgba(3, 167, 247, 1)"></use><use xlink:href="#SvgjsPath1678" x="30" y="270" stroke="rgba(3, 167, 247, 1)"></use><use xlink:href="#SvgjsPath1679" x="30" y="330" stroke="rgba(3, 167, 247, 1)"></use><use xlink:href="#SvgjsPath1681" x="30" y="390" stroke="rgba(3, 167, 247, 1)"></use><use xlink:href="#SvgjsPath1682" x="30" y="450" stroke="rgba(3, 167, 247, 1)"></use><use xlink:href="#SvgjsPath1682" x="30" y="510" stroke="rgba(3, 167, 247, 1)"></use><use xlink:href="#SvgjsPath1679" x="30" y="570" stroke="rgba(3, 167, 247, 1)"></use><use xlink:href="#SvgjsPath1682" x="90" y="30" stroke="rgba(3, 167, 247, 1)"></use><use xlink:href="#SvgjsPath1683" x="90" y="90" stroke="rgba(3, 167, 247, 1)" stroke-width="3"></use><use xlink:href="#SvgjsPath1681" x="90" y="150" stroke="rgba(3, 167, 247, 1)"></use><use xlink:href="#SvgjsPath1679" x="90" y="210" stroke="rgba(3, 167, 247, 1)"></use><use xlink:href="#SvgjsPath1681" x="90" y="270" stroke="rgba(3, 167, 247, 1)"></use><use xlink:href="#SvgjsPath1680" x="90" y="330" stroke="rgba(3, 167, 247, 1)"></use><use xlink:href="#SvgjsPath1682" x="90" y="390" stroke="rgba(3, 167, 247, 1)"></use><use xlink:href="#SvgjsPath1680" x="90" y="450" stroke="rgba(3, 167, 247, 1)"></use><use xlink:href="#SvgjsPath1678" x="90" y="510" stroke="rgba(3, 167, 247, 1)"></use><use xlink:href="#SvgjsPath1680" x="90" y="570" stroke="rgba(3, 167, 247, 1)"></use><use xlink:href="#SvgjsPath1680" x="150" y="30" stroke="rgba(3, 167, 247, 1)"></use><use xlink:href="#SvgjsPath1681" x="150" y="90" stroke="rgba(3, 167, 247, 1)"></use><use xlink:href="#SvgjsPath1679" x="150" y="150" stroke="rgba(3, 167, 247, 1)"></use><use xlink:href="#SvgjsPath1680" x="150" y="210" stroke="rgba(3, 167, 247, 1)"></use><use xlink:href="#SvgjsPath1679" x="150" y="270" stroke="rgba(3, 167, 247, 1)"></use><use xlink:href="#SvgjsPath1682" x="150" y="330" stroke="rgba(3, 167, 247, 1)"></use><use xlink:href="#SvgjsPath1681" x="150" y="390" stroke="rgba(3, 167, 247, 1)"></use><use xlink:href="#SvgjsPath1679" x="150" y="450" stroke="rgba(3, 167, 247, 1)"></use><use xlink:href="#SvgjsPath1681" x="150" y="510" stroke="rgba(3, 167, 247, 1)"></use><use xlink:href="#SvgjsPath1682" x="150" y="570" stroke="rgba(3, 167, 247, 1)"></use><use xlink:href="#SvgjsPath1681" x="210" y="30" stroke="rgba(3, 167, 247, 1)"></use><use xlink:href="#SvgjsPath1678" x="210" y="90" stroke="rgba(3, 167, 247, 1)"></use><use xlink:href="#SvgjsPath1678" x="210" y="150" stroke="rgba(3, 167, 247, 1)"></use><use xlink:href="#SvgjsPath1679" x="210" y="210" stroke="rgba(3, 167, 247, 1)"></use><use xlink:href="#SvgjsPath1679" x="210" y="270" stroke="rgba(3, 167, 247, 1)"></use><use xlink:href="#SvgjsPath1681" x="210" y="330" stroke="rgba(3, 167, 247, 1)"></use><use xlink:href="#SvgjsPath1681" x="210" y="390" stroke="rgba(3, 167, 247, 1)"></use><use xlink:href="#SvgjsPath1678" x="210" y="450" stroke="rgba(3, 167, 247, 1)"></use><use xlink:href="#SvgjsPath1681" x="210" y="510" stroke="rgba(3, 167, 247, 1)"></use><use xlink:href="#SvgjsPath1680" x="210" y="570" stroke="rgba(3, 167, 247, 1)"></use><use xlink:href="#SvgjsPath1678" x="270" y="30" stroke="rgba(3, 167, 247, 1)"></use><use xlink:href="#SvgjsPath1680" x="270" y="90" stroke="rgba(3, 167, 247, 1)"></use><use xlink:href="#SvgjsPath1682" x="270" y="150" stroke="rgba(3, 167, 247, 1)"></use><use xlink:href="#SvgjsPath1678" x="270" y="210" stroke="rgba(3, 167, 247, 1)"></use><use xlink:href="#SvgjsPath1681" x="270" y="270" stroke="rgba(3, 167, 247, 1)"></use><use xlink:href="#SvgjsPath1681" x="270" y="330" stroke="rgba(3, 167, 247, 1)"></use><use xlink:href="#SvgjsPath1678" x="270" y="390" stroke="rgba(3, 167, 247, 1)"></use><use xlink:href="#SvgjsPath1680" x="270" y="450" stroke="rgba(3, 167, 247, 1)"></use><use xlink:href="#SvgjsPath1681" x="270" y="510" stroke="rgba(3, 167, 247, 1)"></use><use xlink:href="#SvgjsPath1678" x="270" y="570" stroke="rgba(3, 167, 247, 1)"></use><use xlink:href="#SvgjsPath1682" x="330" y="30" stroke="rgba(3, 167, 247, 1)"></use><use xlink:href="#SvgjsPath1681" x="330" y="90" stroke="rgba(3, 167, 247, 1)"></use><use xlink:href="#SvgjsPath1682" x="330" y="150" stroke="rgba(3, 167, 247, 1)"></use><use xlink:href="#SvgjsPath1678" x="330" y="210" stroke="rgba(3, 167, 247, 1)"></use><use xlink:href="#SvgjsPath1681" x="330" y="270" stroke="rgba(3, 167, 247, 1)"></use><use xlink:href="#SvgjsPath1682" x="330" y="330" stroke="rgba(3, 167, 247, 1)"></use><use xlink:href="#SvgjsPath1682" x="330" y="390" stroke="rgba(3, 167, 247, 1)"></use><use xlink:href="#SvgjsPath1679" x="330" y="450" stroke="rgba(3, 167, 247, 1)"></use><use xlink:href="#SvgjsPath1680" x="330" y="510" stroke="rgba(3, 167, 247, 1)"></use><use xlink:href="#SvgjsPath1679" x="330" y="570" stroke="rgba(3, 167, 247, 1)"></use><use xlink:href="#SvgjsPath1680" x="390" y="30" stroke="rgba(3, 167, 247, 1)"></use><use xlink:href="#SvgjsPath1680" x="390" y="90" stroke="rgba(3, 167, 247, 1)"></use><use xlink:href="#SvgjsPath1681" x="390" y="150" stroke="rgba(3, 167, 247, 1)"></use><use xlink:href="#SvgjsPath1680" x="390" y="210" stroke="rgba(3, 167, 247, 1)"></use><use xlink:href="#SvgjsPath1682" x="390" y="270" stroke="rgba(3, 167, 247, 1)"></use><use xlink:href="#SvgjsPath1679" x="390" y="330" stroke="rgba(3, 167, 247, 1)"></use><use xlink:href="#SvgjsPath1682" x="390" y="390" stroke="rgba(3, 167, 247, 1)"></use><use xlink:href="#SvgjsPath1682" x="390" y="450" stroke="rgba(3, 167, 247, 1)"></use><use xlink:href="#SvgjsPath1679" x="390" y="510" stroke="rgba(3, 167, 247, 1)"></use><use xlink:href="#SvgjsPath1680" x="390" y="570" stroke="rgba(3, 167, 247, 1)"></use><use xlink:href="#SvgjsPath1681" x="450" y="30" stroke="rgba(3, 167, 247, 1)"></use><use xlink:href="#SvgjsPath1682" x="450" y="90" stroke="rgba(3, 167, 247, 1)"></use><use xlink:href="#SvgjsPath1682" x="450" y="150" stroke="rgba(3, 167, 247, 1)"></use><use xlink:href="#SvgjsPath1682" x="450" y="210" stroke="rgba(3, 167, 247, 1)"></use><use xlink:href="#SvgjsPath1680" x="450" y="270" stroke="rgba(3, 167, 247, 1)"></use><use xlink:href="#SvgjsPath1681" x="450" y="330" stroke="rgba(3, 167, 247, 1)"></use><use xlink:href="#SvgjsPath1680" x="450" y="390" stroke="rgba(3, 167, 247, 1)"></use><use xlink:href="#SvgjsPath1681" x="450" y="450" stroke="rgba(3, 167, 247, 1)"></use><use xlink:href="#SvgjsPath1682" x="450" y="510" stroke="rgba(3, 167, 247, 1)"></use><use xlink:href="#SvgjsPath1680" x="450" y="570" stroke="rgba(3, 167, 247, 1)"></use><use xlink:href="#SvgjsPath1680" x="510" y="30" stroke="rgba(3, 167, 247, 1)"></use><use xlink:href="#SvgjsPath1679" x="510" y="90" stroke="rgba(3, 167, 247, 1)"></use><use xlink:href="#SvgjsPath1681" x="510" y="150" stroke="rgba(3, 167, 247, 1)"></use><use xlink:href="#SvgjsPath1682" x="510" y="210" stroke="rgba(3, 167, 247, 1)"></use><use xlink:href="#SvgjsPath1681" x="510" y="270" stroke="rgba(3, 167, 247, 1)"></use><use xlink:href="#SvgjsPath1683" x="510" y="330" stroke="rgba(3, 167, 247, 1)" stroke-width="3"></use><use xlink:href="#SvgjsPath1683" x="510" y="390" stroke="rgba(3, 167, 247, 1)" stroke-width="3"></use><use xlink:href="#SvgjsPath1679" x="510" y="450" stroke="rgba(3, 167, 247, 1)"></use><use xlink:href="#SvgjsPath1682" x="510" y="510" stroke="rgba(3, 167, 247, 1)"></use><use xlink:href="#SvgjsPath1678" x="510" y="570" stroke="rgba(3, 167, 247, 1)"></use><use xlink:href="#SvgjsPath1682" x="570" y="30" stroke="rgba(3, 167, 247, 1)"></use><use xlink:href="#SvgjsPath1679" x="570" y="90" stroke="rgba(3, 167, 247, 1)"></use><use xlink:href="#SvgjsPath1681" x="570" y="150" stroke="rgba(3, 167, 247, 1)"></use><use xlink:href="#SvgjsPath1679" x="570" y="210" stroke="rgba(3, 167, 247, 1)"></use><use xlink:href="#SvgjsPath1681" x="570" y="270" stroke="rgba(3, 167, 247, 1)"></use><use xlink:href="#SvgjsPath1680" x="570" y="330" stroke="rgba(3, 167, 247, 1)"></use><use xlink:href="#SvgjsPath1680" x="570" y="390" stroke="rgba(3, 167, 247, 1)"></use><use xlink:href="#SvgjsPath1680" x="570" y="450" stroke="rgba(3, 167, 247, 1)"></use><use xlink:href="#SvgjsPath1683" x="570" y="510" stroke="rgba(3, 167, 247, 1)" stroke-width="3"></use><use xlink:href="#SvgjsPath1678" x="570" y="570" stroke="rgba(3, 167, 247, 1)"></use><use xlink:href="#SvgjsPath1679" x="630" y="30" stroke="rgba(3, 167, 247, 1)"></use><use xlink:href="#SvgjsPath1678" x="630" y="90" stroke="rgba(3, 167, 247, 1)"></use><use xlink:href="#SvgjsPath1680" x="630" y="150" stroke="rgba(3, 167, 247, 1)"></use><use xlink:href="#SvgjsPath1680" x="630" y="210" stroke="rgba(3, 167, 247, 1)"></use><use xlink:href="#SvgjsPath1679" x="630" y="270" stroke="rgba(3, 167, 247, 1)"></use><use xlink:href="#SvgjsPath1681" x="630" y="330" stroke="rgba(3, 167, 247, 1)"></use><use xlink:href="#SvgjsPath1682" x="630" y="390" stroke="rgba(3, 167, 247, 1)"></use><use xlink:href="#SvgjsPath1679" x="630" y="450" stroke="rgba(3, 167, 247, 1)"></use><use xlink:href="#SvgjsPath1682" x="630" y="510" stroke="rgba(3, 167, 247, 1)"></use><use xlink:href="#SvgjsPath1682" x="630" y="570" stroke="rgba(3, 167, 247, 1)"></use><use xlink:href="#SvgjsPath1681" x="690" y="30" stroke="rgba(3, 167, 247, 1)"></use><use xlink:href="#SvgjsPath1681" x="690" y="90" stroke="rgba(3, 167, 247, 1)"></use><use xlink:href="#SvgjsPath1681" x="690" y="150" stroke="rgba(3, 167, 247, 1)"></use><use xlink:href="#SvgjsPath1681" x="690" y="210" stroke="rgba(3, 167, 247, 1)"></use><use xlink:href="#SvgjsPath1680" x="690" y="270" stroke="rgba(3, 167, 247, 1)"></use><use xlink:href="#SvgjsPath1678" x="690" y="330" stroke="rgba(3, 167, 247, 1)"></use><use xlink:href="#SvgjsPath1681" x="690" y="390" stroke="rgba(3, 167, 247, 1)"></use><use xlink:href="#SvgjsPath1679" x="690" y="450" stroke="rgba(3, 167, 247, 1)"></use><use xlink:href="#SvgjsPath1681" x="690" y="510" stroke="rgba(3, 167, 247, 1)"></use><use xlink:href="#SvgjsPath1680" x="690" y="570" stroke="rgba(3, 167, 247, 1)"></use></symbol></svg>